<svg width="169" height="169" viewBox="0 0 169 169" fill="none" xmlns="http://www.w3.org/2000/svg">
<mask id="mask0_130_2141" style="mask-type:luminance" maskUnits="userSpaceOnUse" x="0" y="0" width="169" height="169">
<path d="M84.3948 168.914C131.005 168.914 168.79 131.129 168.79 84.5188C168.79 37.9088 131.005 0.123993 84.3948 0.123993C37.7848 0.123993 0 37.9088 0 84.5188C0 131.129 37.7848 168.914 84.3948 168.914Z" fill="white"/>
</mask>
<g mask="url(#mask0_130_2141)">
<path d="M-29.9878 309.999L327.012 309.999L327.012 -47.0014L-29.9878 -47.0014L-29.9878 309.999Z" fill="#F2EBE6"/>
<path d="M134.375 199.259C127.449 191.833 115.882 181.123 115.882 181.123V153.277H136.089L134.375 199.259Z" fill="#FFC9AF"/>
<path opacity="0.4" d="M134.375 199.259C127.449 191.833 115.882 181.123 115.882 181.123V153.277H136.089L134.375 199.259Z" fill="#D04C44"/>
<path d="M100.246 112.222C100.246 112.222 112.098 117.363 113.812 118.077C115.526 118.862 116.954 119.79 117.739 122.147C118.524 124.431 119.595 134.784 119.595 134.784C119.595 134.784 127.878 147.851 129.306 152.135C130.734 156.347 130.805 174.054 124.736 190.334C124.379 210.54 124.522 225.177 124.522 225.177C124.522 225.177 127.235 231.46 127.021 232.817C126.807 234.102 123.665 237.672 123.665 237.672C123.665 237.672 89.6073 246.168 42.1263 237.672C42.1263 237.672 38.1993 231.817 38.6991 230.389C39.1989 228.961 43.5543 220.75 43.5543 220.75C43.5543 220.75 29.6313 160.917 27.1323 146.851C24.6333 132.785 26.0613 124.431 36.1287 120.576C46.1961 116.72 60.1905 110.865 60.1905 110.865L100.246 112.222Z" fill="#FF9EBD"/>
<path d="M78.3975 29.755C75.6843 21.6868 67.4019 19.6162 59.6193 22.4008C51.7653 25.2568 45.2679 34.8958 44.9109 49.1758C44.5539 63.4558 43.2687 87.1606 37.1997 90.5878C40.5555 90.445 43.7685 86.518 43.7685 86.518C43.7685 86.518 46.4103 103.44 40.6983 107.652C47.6955 108.295 52.6935 104.868 54.2643 101.655C54.1215 105.653 53.3361 108.509 53.3361 108.509C53.3361 108.509 58.9767 106.082 60.3333 101.655C62.8323 101.726 69.6153 97.3708 69.6153 87.0892C69.6153 76.8076 69.6153 30.469 69.6153 30.469L78.3975 29.755Z" fill="#404040"/>
<path d="M66.2593 78.5212C67.4017 86.3038 68.0443 93.5866 68.1871 98.8702C68.3299 104.225 66.8305 108.366 60.2617 110.865C61.4755 113.65 65.7595 124.788 84.1093 124.788C99.5317 124.788 100.246 112.222 100.246 112.222C100.246 112.222 97.3897 110.366 95.1763 108.795C92.9629 107.224 92.7487 105.51 92.7487 102.226C92.7487 98.9416 92.7487 78.4498 92.7487 78.4498H66.2593V78.5212Z" fill="#FFC9AF"/>
<path opacity="0.5" d="M68.0444 84.4474V78.5212H92.7488C92.7488 78.5212 92.7488 99.013 92.7488 102.297C92.7488 103.94 92.8202 105.225 93.1058 106.224C91.0352 108.081 88.2506 108.152 84.9662 106.796C78.8972 104.154 71.4716 96.2284 68.0444 84.4474Z" fill="#D04C44"/>
<path d="M112.812 73.309C112.812 73.309 111.67 79.1638 109.742 85.447C107.814 91.7302 102.459 100.512 91.3206 101.512C90.1782 101.441 73.4706 99.0844 66.402 80.8774C63.1176 77.1646 55.335 63.5272 62.5464 45.8914C69.7578 28.2556 100.246 28.2556 110.67 42.1072C117.81 51.6034 115.025 66.3118 112.812 73.309Z" fill="#FFC9AF"/>
<path d="M85.6803 65.1694C89.3217 65.812 90.6783 68.9536 90.1071 71.881C90.1071 71.881 88.5363 73.5946 84.8235 73.2376C81.1107 72.8806 79.5399 70.3102 79.7541 68.3824C79.7541 68.311 81.3963 64.9552 85.6803 65.1694Z" fill="white"/>
<path d="M85.7517 66.4546C87.8223 66.6688 89.3931 68.5252 89.1789 70.6672C89.1075 71.524 88.6791 72.3094 88.1079 72.952C87.3225 73.1662 86.1801 73.309 84.8235 73.2376C83.7525 73.0948 82.8243 72.8092 82.1103 72.4522C81.6819 71.7382 81.3963 70.8814 81.5391 70.0246C81.7533 67.8112 83.6097 66.3118 85.7517 66.4546Z" fill="#404040"/>
<path d="M81.3962 67.597C81.3248 68.2396 81.896 68.8822 82.61 68.9536C83.324 69.025 84.038 68.5252 84.038 67.8826C84.1094 67.24 83.5382 66.5974 82.8242 66.526C82.1102 66.4546 81.4676 66.9544 81.3962 67.597Z" fill="white"/>
<path d="M90.4641 71.8096C90.2499 69.0964 88.7505 66.3118 85.4661 65.9548C82.1817 65.5978 80.3253 68.1682 80.0397 69.025C80.0397 70.2388 80.1825 70.9528 80.1825 70.9528C80.1825 70.9528 78.7545 70.0246 78.3975 68.5966C79.4685 66.526 81.6105 64.2412 85.6089 64.6696C88.6077 64.8838 91.3923 67.7398 90.4641 71.8096Z" fill="#242424"/>
<path d="M91.8922 63.0988C90.7498 62.8846 84.9664 60.6712 83.8954 60.3142C82.8244 59.9572 81.8248 59.743 82.039 59.6002C82.2532 59.4574 86.68 58.8148 89.6788 59.6002C92.6776 60.457 91.8922 63.0988 91.8922 63.0988Z" fill="#242424"/>
<path d="M109.242 66.4546C106.6 67.0258 105.529 70.1674 105.672 72.8092C105.672 72.8092 106.458 74.38 108.814 74.5228C111.313 74.6656 112.955 72.4522 113.241 70.3816C113.169 70.3816 112.598 66.4546 109.242 66.4546Z" fill="white"/>
<path d="M109.099 67.8112C110.741 67.6684 111.884 69.5248 111.669 71.8096C111.598 72.595 111.312 73.309 111.027 73.8802C110.384 74.3086 109.67 74.5228 108.742 74.4514C107.885 74.38 107.243 74.1658 106.743 73.8802C106.457 73.309 106.314 72.595 106.314 71.881C106.386 69.8818 107.6 67.954 109.099 67.8112Z" fill="#404040"/>
<path d="M112.169 69.382C112.098 70.096 111.527 70.7386 110.956 70.7386C110.384 70.7386 109.956 70.2388 110.027 69.5248C110.099 68.8108 110.599 68.1682 111.17 68.0968C111.812 68.0254 112.241 68.5966 112.169 69.382Z" fill="white"/>
<path d="M105.458 72.6664C105.743 70.2388 106.957 67.5256 109.242 67.24C111.812 66.9544 112.741 70.0246 112.812 70.9528C112.598 72.1666 112.312 72.8806 112.312 72.8806C112.312 72.8806 113.597 72.1666 114.24 70.6672C113.812 68.2396 112.598 65.3836 109.313 65.7406C107.171 66.0262 105.101 68.8822 105.458 72.6664Z" fill="#242424"/>
<path d="M105.743 64.027C106.671 63.9556 110.884 62.242 111.812 62.0278C112.74 61.7422 113.526 61.6708 113.383 61.528C113.24 61.3852 110.456 60.5284 107.957 61.0996C105.458 61.5994 105.743 64.027 105.743 64.027Z" fill="#242424"/>
<path d="M99.3888 79.4494C99.4602 81.2344 99.7458 82.7338 99.4602 83.305C99.1746 83.8762 97.7466 85.09 97.8894 85.09C98.0322 85.09 100.817 84.6616 100.817 83.3764C100.745 82.0912 99.5316 78.9496 99.3888 79.4494Z" fill="#D0645D"/>
<path d="M96.0333 84.4474C96.0333 84.4474 96.3903 83.4478 95.6049 83.3764C94.8195 83.305 94.1055 84.0904 94.1055 84.0904L96.0333 84.4474Z" fill="#D0645D"/>
<path d="M51.9079 56.9584C53.0503 46.8196 53.7643 34.3246 69.9007 26.2564C81.4675 20.5444 99.9601 19.9732 112.455 33.5392C118.096 35.11 124.236 41.3218 123.808 51.6034C123.379 61.885 116.025 64.8838 113.098 64.5982C113.598 63.0988 114.026 54.388 111.955 49.747C111.384 52.246 108.528 61.6708 99.6031 63.313H98.7463C98.7463 63.313 99.5317 60.5284 99.5317 58.3864C96.8185 62.0992 93.2485 63.0988 91.3207 63.313H90.6067C90.6067 63.313 92.2489 58.2436 92.3203 52.4602C88.9645 59.5288 83.6095 63.0988 81.0391 63.0988C78.1831 64.8838 71.7571 65.2408 71.7571 65.2408C71.7571 65.2408 69.7579 69.6676 63.3319 70.5244L66.4021 80.806L67.2589 86.518C67.2589 86.518 58.3339 86.7322 53.1931 79.6636C47.9809 72.6664 49.0519 63.5986 51.9079 56.9584Z" fill="#404040"/>
<path d="M61.9039 85.447L60.9043 85.09L59.9047 84.6616C59.2621 84.376 58.6195 84.019 58.0483 83.662C57.7627 83.4478 57.4771 83.305 57.1915 83.0908C56.9059 82.8766 56.6203 82.6624 56.3347 82.4482L55.5493 81.7342C55.2637 81.52 55.0495 81.2344 54.8353 80.9488C54.5497 80.7346 54.3355 80.449 54.1213 80.1634C53.9071 79.8778 53.6929 79.5922 53.4787 79.378C53.1217 78.8068 52.6933 78.1642 52.4077 77.5216C52.2649 77.236 52.0507 76.9504 51.9079 76.5934L51.4795 75.5938C51.3367 75.3082 51.2653 74.9512 51.1225 74.5942C51.0511 74.2372 50.9083 73.9516 50.8369 73.5946L50.6227 72.595C50.5513 72.238 50.4799 71.881 50.4799 71.5954C50.4085 71.2384 50.3371 70.8814 50.3371 70.5244C50.3371 70.1674 50.2657 69.8104 50.2657 69.4534C50.2657 68.7394 50.1943 68.0254 50.2657 67.3828C50.2657 66.6688 50.3371 65.9548 50.4085 65.3122C50.5513 64.5982 50.6227 63.9556 50.7655 63.2416C50.9083 62.5276 51.0511 61.885 51.2653 61.171C51.4795 60.5284 51.6223 59.8144 51.8365 59.1718C52.0507 58.5292 52.2649 57.8152 52.4791 57.1726L52.5505 57.0298V56.9584L52.7647 54.2452C52.8361 53.317 52.9075 52.4602 53.0503 51.532C53.1931 50.6752 53.2645 49.747 53.4073 48.8902C53.5501 48.0334 53.6929 47.1052 53.9071 46.2484L54.1927 44.9632C54.3355 44.5348 54.4069 44.1064 54.5497 43.678L54.9781 42.3928C55.1209 41.9644 55.2637 41.536 55.4065 41.1076L55.9777 39.8938C56.1919 39.4654 56.3347 39.037 56.5489 38.68L57.9055 36.3238C57.9055 36.2524 57.9055 36.181 57.8341 36.181C57.7627 36.181 57.6913 36.181 57.6913 36.2524L56.1919 38.5372C55.9777 38.8942 55.7635 39.3226 55.5493 39.751L54.9781 40.9648C54.7639 41.3932 54.6211 41.8216 54.4783 42.25L53.9785 43.5352C53.8357 43.9636 53.6929 44.392 53.5501 44.8204L53.1931 46.1056C52.9075 46.9624 52.7647 47.8906 52.5505 48.7474C52.3363 49.6042 52.2649 50.5324 52.0507 51.4606C51.9079 52.3888 51.7651 53.2456 51.6223 54.1738L51.2653 56.887L51.3367 56.7442C51.0511 57.3868 50.6941 58.1008 50.4799 58.7434C50.1943 59.4574 49.9801 60.1 49.7659 60.814C49.6231 61.528 49.4089 62.242 49.2661 62.956C49.1233 63.67 49.0519 64.384 48.9091 65.1694C48.8377 65.8834 48.7663 66.6688 48.8377 67.3828C48.8377 68.0968 48.8377 68.8822 48.9091 69.5962C48.9091 69.9532 48.9805 70.3102 49.0519 70.6672C49.1233 71.0242 49.1233 71.3812 49.1947 71.7382C49.2661 72.0952 49.3375 72.4522 49.4089 72.8092L49.6945 73.8802C49.7659 74.2372 49.9087 74.5942 50.0515 74.9512C50.1943 75.3082 50.2657 75.6652 50.4799 75.9508L50.9797 76.9504C51.1225 77.3074 51.3367 77.593 51.5509 77.95C51.9079 78.5926 52.3363 79.1638 52.7647 79.735C52.9789 80.092 53.2645 80.3062 53.4787 80.5918C53.6929 80.8774 53.9785 81.163 54.2641 81.3772C54.5497 81.6628 54.7639 81.877 55.0495 82.1626L55.9063 82.8766C56.1919 83.0908 56.5489 83.305 56.8345 83.5192C57.1201 83.7334 57.4771 83.8762 57.7627 84.0904C58.4053 84.4474 59.0479 84.733 59.7619 85.0186L60.7615 85.3756L61.7611 85.6612C61.8325 85.6612 61.9039 85.6612 61.9753 85.5898C61.9753 85.5898 61.9753 85.5184 61.9039 85.447Z" fill="#242424"/>
<path d="M64.2603 69.382C66.5451 69.739 70.6863 74.737 68.5443 80.5918C73.0425 77.4502 73.4709 66.2404 64.2603 67.7398V69.382Z" fill="#404040"/>
<path d="M65.6882 71.3098C65.1884 67.4542 64.2602 65.3836 62.0468 65.2408C59.8334 65.098 56.1206 68.311 56.6918 71.9524C57.5486 77.1646 60.6188 79.021 62.3324 80.092C64.046 81.0916 66.3308 81.3058 66.3308 80.806C66.4022 80.3062 65.6882 71.3098 65.6882 71.3098Z" fill="#FFC9AF"/>
<path d="M96.5331 87.946C99.0321 88.0174 100.317 88.303 100.317 89.5168C100.317 90.7306 98.6037 93.2296 95.3193 93.2296C90.7497 93.2296 88.9647 90.5164 89.1075 89.0884C89.3217 87.7318 92.9631 87.8032 96.5331 87.946Z" fill="#7A1C1C"/>
<path d="M89.2505 89.9452C92.6063 88.5172 97.4615 89.017 99.6749 91.3018C98.8895 92.3014 97.4615 93.301 95.3909 93.301C91.5353 93.301 89.6789 91.4446 89.2505 89.9452Z" fill="#F65B55"/>
<path d="M100.175 88.8742C99.5321 89.1598 98.3183 89.4454 95.8907 89.4454C92.3207 89.374 90.3215 89.4454 89.2505 88.9456C89.8217 87.8032 93.2489 87.8746 96.6047 88.0174C98.4611 88.0174 99.6749 88.1602 100.175 88.8742Z" fill="white"/>
<path d="M74.8273 64.8838C73.1851 65.098 71.8999 65.1694 71.8999 65.1694C71.8999 65.1694 76.1125 59.5288 78.8971 51.1036C78.8257 51.175 78.2545 59.029 74.8273 64.8838Z" fill="#242424"/>
<path d="M97.9609 125.074C97.9609 125.074 103.887 115.506 104.53 114.507C105.172 113.507 106.029 112.865 106.957 112.579C107.886 112.293 112.741 110.794 114.169 110.151C115.597 109.509 116.025 111.008 115.168 112.579C114.312 114.15 112.598 115.007 111.741 115.292C111.527 117.577 110.099 126.431 97.9609 125.074Z" fill="#FFC9AF"/>
<path opacity="0.3" d="M97.9609 125.074C97.9609 125.074 103.887 115.506 104.53 114.507C105.172 113.507 106.029 112.865 106.957 112.579C107.886 112.293 112.741 110.794 114.169 110.151C115.597 109.509 116.025 111.008 115.168 112.579C114.312 114.15 112.598 115.007 111.741 115.292C111.527 117.577 110.099 126.431 97.9609 125.074Z" fill="#D04C44"/>
<path d="M101.674 133.713C101.388 134.285 101.388 134.713 101.602 135.07C101.817 135.284 102.174 135.927 102.745 136.641L121.166 135.498C122.166 135.498 123.451 134.713 124.022 133.785L144.514 100.37C144.085 99.7984 143.657 99.1558 143.443 98.8702C143.229 98.5846 142.943 98.4418 142.443 98.4418H123.808C122.808 98.4418 121.523 99.2272 120.952 100.155L101.674 133.713Z" fill="#404040"/>
<path opacity="0.6" d="M101.674 133.713C101.388 134.285 101.388 134.713 101.602 135.07C101.817 135.284 102.174 135.927 102.745 136.641L121.166 135.498C122.166 135.498 123.451 134.713 124.022 133.785L144.514 100.37C144.085 99.7984 143.657 99.1558 143.443 98.8702C143.229 98.5846 142.943 98.4418 142.443 98.4418H123.808C122.808 98.4418 121.523 99.2272 120.952 100.155L101.674 133.713Z" fill="#242424"/>
<path d="M102.816 135.213C102.245 136.141 102.674 136.926 103.673 136.926H122.309C123.308 136.926 124.593 136.141 125.165 135.213L144.443 101.583C145.014 100.655 144.585 99.8698 143.586 99.8698H124.95C123.951 99.8698 122.666 100.655 122.094 101.583L102.816 135.213Z" fill="#404040"/>
<path d="M135.16 106.01C134.661 106.796 135.089 107.438 136.16 107.438H137.874C138.873 107.438 140.158 106.796 140.658 106.01L142.515 103.011C143.014 102.226 142.586 101.583 141.515 101.583H139.801C138.802 101.583 137.517 102.226 137.017 103.011L135.16 106.01Z" fill="#242424"/>
<path d="M139.087 103.226C138.802 103.725 139.016 104.082 139.659 104.082C140.301 104.082 141.015 103.725 141.301 103.226C141.586 102.726 141.372 102.369 140.73 102.369C140.158 102.369 139.444 102.797 139.087 103.226Z" fill="#242424"/>
<path d="M137.517 105.796C137.231 106.296 137.445 106.653 138.088 106.653C138.73 106.653 139.444 106.296 139.73 105.796C140.016 105.296 139.801 104.939 139.159 104.939C138.516 104.939 137.802 105.368 137.517 105.796Z" fill="#242424"/>
<path d="M36.2712 209.326C31.2018 201.686 25.1328 183.979 25.1328 163.844H52.6218L53.55 181.194C53.55 181.266 49.4802 196.974 36.2712 209.326Z" fill="#FFC9AF"/>
<path opacity="0.3" d="M36.8428 208.755C35.3434 205.542 32.8444 189.191 47.2672 170.913C48.9808 168.699 50.7658 166.415 52.6222 164.058L53.5504 181.194C53.5504 181.266 49.6234 196.474 36.8428 208.755Z" fill="#D04C44"/>
<path d="M134.089 127.002C134.089 127.002 133.804 132.857 134.946 137.498C136.089 142.139 148.941 172.555 151.44 180.052C153.939 187.549 154.653 192.047 153.939 197.402C153.225 202.757 151.582 208.469 148.441 207.969C145.371 207.47 133.947 202.829 131.733 194.189C129.52 185.478 120.238 137.355 120.238 137.355V126.93H134.089V127.002Z" fill="#FFC9AF"/>
<path opacity="0.4" d="M132.233 131.928C131.376 138.354 128.092 144.638 122.308 147.494C121.166 141.496 120.309 137.355 120.309 137.355V126.93H132.233V131.928Z" fill="#D04C44"/>
<path d="M127.378 118.005C128.806 117.149 129.663 116.649 130.876 116.506C132.162 116.435 135.589 116.435 136.446 116.506C137.302 116.577 138.516 117.506 138.588 118.362C138.73 119.219 139.159 122.147 138.802 122.789C138.445 123.432 136.945 124.217 136.731 124.788C136.588 125.431 136.803 126.859 136.16 127.787C135.517 128.715 133.59 129.786 133.447 130.143C133.304 130.5 131.876 133.713 131.162 134.856C130.448 135.998 128.877 137.141 126.45 137.426C124.022 137.712 121.166 137.283 120.238 137.426C119.238 137.569 118.667 136.427 118.81 135.498C118.953 134.57 119.524 133.713 120.238 133.142C120.452 130.572 121.023 129.072 122.023 127.859C122.308 125.574 122.451 123.932 123.594 123.289C124.308 121.218 125.593 119.076 127.378 118.005Z" fill="#FFC9AF"/>
<path opacity="0.5" d="M118.881 135.498C119.024 134.642 119.595 133.713 120.309 133.142C120.523 130.572 121.094 129.072 122.094 127.859C122.38 125.574 122.522 123.932 123.665 123.289C124.379 121.29 125.664 119.076 127.449 118.077C128.877 117.291 129.662 116.72 130.876 116.649C131.804 117.006 132.518 117.363 132.733 117.506C133.661 118.077 133.661 118.862 133.447 119.576C133.232 120.219 132.233 121.504 131.376 121.575C132.733 121.79 134.375 122.361 134.018 122.504C133.804 122.575 132.376 122.432 131.376 122.289C131.305 123.432 130.591 124.86 130.091 125.36C129.662 125.788 129.163 125.859 128.806 125.859C130.091 126.145 131.662 126.645 131.376 126.788C131.162 126.859 129.877 126.716 128.806 126.645C128.948 127.073 129.02 127.644 128.877 128.073C128.591 128.93 128.02 129.786 127.806 130.143C127.663 130.358 127.092 130.572 126.806 130.715C128.092 131 129.662 131.5 129.377 131.643C129.091 131.786 127.663 131.571 126.592 131.429C126.521 131.786 126.449 132.214 126.235 132.571C125.807 133.214 124.879 134.07 124.022 134.57C123.379 134.927 120.809 135.855 119.024 136.569C118.881 136.07 118.81 135.713 118.881 135.498Z" fill="#D04C44"/>
<path d="M92.463 129.501C94.5336 127.216 107.1 114.364 107.814 114.078C108.528 113.793 119.452 113.293 120.595 113.364C121.737 113.436 129.163 116.363 130.091 116.863C131.019 117.434 131.019 118.22 130.805 118.934C130.591 119.648 129.52 120.933 128.734 120.933C129.02 122.075 128.163 124.146 127.449 124.717C126.806 125.36 125.95 125.217 125.95 125.217C125.95 125.217 126.592 126.502 126.235 127.43C125.878 128.358 125.378 129.144 125.164 129.501C124.95 129.858 123.95 130.143 123.95 130.143C123.95 130.143 124.022 131.286 123.522 131.928C123.022 132.571 122.165 133.428 121.309 133.928C120.452 134.427 116.025 135.998 114.811 136.427C113.597 136.855 104.315 140.425 101.102 141.353C97.818 146.851 72.2568 192.833 59.976 201.186C47.6952 209.54 37.4136 210.897 36.2712 209.326C35.1288 207.755 33.3438 190.048 50.9796 172.555C68.6154 155.062 92.463 129.501 92.463 129.501Z" fill="#FFC9AF"/>
<path opacity="0.5" d="M128.449 120.719C128.449 120.719 128.234 120.647 127.806 120.504C127.378 120.433 126.806 120.219 126.092 120.076C125.378 119.933 124.593 119.719 123.665 119.576C123.451 119.505 123.236 119.505 123.022 119.433L122.665 119.362H122.522H122.451H122.38H122.308C121.88 119.291 121.309 119.291 120.809 119.362C120.309 119.362 119.809 119.433 119.381 119.433C118.881 119.433 118.453 119.505 118.024 119.576C117.096 119.648 116.311 119.79 115.597 119.862C114.169 120.076 113.24 120.29 113.24 120.29C113.169 120.29 113.098 120.433 113.098 120.504C113.098 120.576 113.169 120.647 113.312 120.647C113.312 120.647 113.526 120.647 113.954 120.647C114.383 120.647 114.954 120.647 115.668 120.647C116.382 120.647 117.239 120.576 118.096 120.576C118.524 120.576 119.024 120.504 119.452 120.504C119.881 120.504 120.38 120.433 120.88 120.433C121.309 120.433 121.737 120.362 122.237 120.433H122.308H122.451L122.808 120.504C123.022 120.504 123.236 120.576 123.451 120.576C124.307 120.719 125.164 120.861 125.878 120.933C126.592 121.004 127.163 121.076 127.592 121.147C128.02 121.218 128.234 121.218 128.234 121.218C128.377 121.218 128.449 121.147 128.449 121.004C128.591 120.861 128.52 120.719 128.449 120.719Z" fill="#D04C44"/>
<path opacity="0.5" d="M125.593 125.003C125.593 125.003 125.45 125.003 125.093 124.931C124.807 124.931 124.379 124.86 123.879 124.788C123.379 124.717 122.808 124.717 122.165 124.717H121.951H121.808H121.737H121.666C121.523 124.717 121.309 124.788 121.166 124.788C120.809 124.86 120.523 124.86 120.166 125.003C119.452 125.145 118.81 125.36 118.167 125.502C117.524 125.717 116.953 125.859 116.525 126.074C115.525 126.431 114.954 126.716 114.954 126.716C114.883 126.788 114.811 126.859 114.883 127.002C114.883 127.073 115.025 127.145 115.097 127.145C115.097 127.145 115.24 127.145 115.597 127.073C115.882 127.002 116.311 127.002 116.81 126.859C117.31 126.788 117.881 126.645 118.524 126.502C119.167 126.359 119.809 126.216 120.38 126.074C120.666 126.002 121.023 125.931 121.38 125.859C121.523 125.859 121.737 125.788 121.88 125.788H121.951C121.808 125.788 121.951 125.788 121.88 125.788H122.023H122.237C122.879 125.788 123.451 125.717 123.95 125.717C124.45 125.717 124.879 125.645 125.164 125.574C125.45 125.574 125.664 125.502 125.664 125.502C125.807 125.502 125.878 125.36 125.878 125.217C125.807 125.145 125.735 125.074 125.593 125.003Z" fill="#D04C44"/>
<path opacity="0.5" d="M123.594 129.929C123.594 129.929 123.094 129.858 122.38 129.929C121.666 129.929 120.666 130.072 119.738 130.286C119.238 130.358 118.81 130.5 118.31 130.643C117.882 130.786 117.453 130.929 117.096 131.072C116.739 131.214 116.454 131.357 116.24 131.5C116.025 131.643 115.954 131.643 115.954 131.643C115.883 131.714 115.811 131.786 115.883 131.928C115.954 132 116.025 132 116.097 132C116.097 132 116.24 132 116.454 131.928C116.668 131.928 116.954 131.857 117.311 131.786C117.668 131.714 118.096 131.643 118.524 131.571C118.953 131.5 119.453 131.429 119.881 131.357C120.809 131.143 121.737 131 122.451 130.786C123.165 130.572 123.594 130.429 123.594 130.429C123.737 130.358 123.737 130.286 123.737 130.143C123.808 129.929 123.737 129.929 123.594 129.929Z" fill="#D04C44"/>
<path d="M28.4174 126.573C25.3472 131.286 19.2782 157.775 17.7788 168.842L25.5614 172.841L25.2758 168.2C25.2758 168.2 31.8446 166.2 53.9072 168.485C53.9072 168.485 53.7644 149.636 47.8382 131.429C47.8382 131.5 40.4126 125.645 28.4174 126.573Z" fill="#FF9EBD"/>
<path d="M25.2756 168.271L25.5612 172.912L19.4922 169.77C20.7774 169.271 22.7052 168.699 25.2756 168.271Z" fill="#DB7093"/>
<path d="M48.4806 136.784C48.4806 136.784 48.909 138.497 49.623 140.996C49.7658 141.639 49.98 142.281 50.1228 143.067C50.2656 143.781 50.4798 144.566 50.694 145.352C50.9082 146.137 51.051 146.994 51.2652 147.779C51.4794 148.636 51.6222 149.493 51.8364 150.278C52.0506 151.135 52.1934 151.992 52.3362 152.849C52.479 153.705 52.6218 154.491 52.7646 155.348C52.9074 156.133 53.0502 156.918 53.1216 157.632C53.193 158.346 53.3358 159.06 53.4072 159.703C53.4786 160.346 53.55 160.917 53.6214 161.488C53.6928 161.988 53.6928 162.488 53.7642 162.845C53.8356 163.63 53.907 164.058 53.907 164.058C53.907 164.13 53.9784 164.201 54.0498 164.201C54.1212 164.201 54.1212 164.13 54.1926 164.058C54.1926 164.058 54.264 163.63 54.3354 162.845C54.4068 162.488 54.4068 161.988 54.4782 161.417C54.4782 160.845 54.5496 160.274 54.5496 159.632C54.5496 158.989 54.5496 158.275 54.5496 157.49C54.5496 156.704 54.4782 155.919 54.4068 155.062C54.3354 154.205 54.264 153.348 54.1212 152.492C53.9784 151.635 53.8356 150.778 53.6928 149.85C53.55 148.993 53.3358 148.136 53.1216 147.279C52.9074 146.423 52.6932 145.637 52.4076 144.78C52.1934 143.995 51.9078 143.21 51.6222 142.496C51.3366 141.782 51.1224 141.139 50.8368 140.496C49.8372 138.069 48.8376 136.498 48.8376 136.498C48.7662 136.427 48.6948 136.427 48.6234 136.427C48.4806 136.641 48.4092 136.712 48.4806 136.784Z" fill="#DB7093"/>
<path d="M58.1914 141.496C58.1914 141.496 58.1914 141.782 58.12 142.353C58.12 142.638 58.12 142.924 58.0486 143.352C58.0486 143.709 57.9772 144.138 57.9772 144.638C57.9772 145.066 57.9058 145.566 57.9058 146.137C57.8344 146.637 57.8344 147.208 57.8344 147.779C57.763 148.35 57.763 148.922 57.6916 149.493C57.6916 150.064 57.6202 150.707 57.5488 151.278C57.4774 151.849 57.4774 152.492 57.406 153.063C57.406 153.634 57.3346 154.205 57.2632 154.776C57.1918 155.348 57.1204 155.919 57.1204 156.419C57.1204 156.704 57.049 156.918 57.049 157.204C57.049 157.418 56.9776 157.704 56.9776 157.918C56.692 159.703 56.6206 160.988 56.6206 160.988C56.6206 161.06 56.692 161.131 56.7634 161.131C56.8348 161.131 56.8348 161.131 56.9062 161.06C56.9062 161.06 57.4774 159.917 58.12 158.204C58.2628 157.775 58.477 157.275 58.5484 156.776C58.6912 156.276 58.834 155.705 58.9054 155.133C59.0482 154.562 59.191 153.991 59.191 153.348C59.2624 152.706 59.3338 152.135 59.4052 151.492C59.4766 150.849 59.4766 150.278 59.4766 149.636C59.4766 148.993 59.4766 148.422 59.4766 147.851C59.4766 147.279 59.4052 146.708 59.3338 146.137C59.2624 145.637 59.2624 145.066 59.1196 144.638C58.9768 143.709 58.834 142.924 58.6912 142.424C58.6198 142.139 58.5484 141.924 58.477 141.782C58.4056 141.639 58.4056 141.567 58.4056 141.567C58.4056 141.496 58.2628 141.425 58.1914 141.496Z" fill="#DB7093"/>
<path d="M129.448 111.008C131.519 111.008 132.376 110.151 132.376 108.081C132.376 107.867 132.519 107.724 132.733 107.724C132.947 107.724 133.09 107.867 133.09 108.081C133.09 110.151 133.947 111.008 136.017 111.008C136.231 111.008 136.374 111.151 136.374 111.365C136.374 111.579 136.231 111.722 136.017 111.722C133.947 111.722 133.09 112.579 133.09 114.65C133.09 114.864 132.947 115.007 132.733 115.007C132.519 115.007 132.376 114.864 132.376 114.65C132.376 112.579 131.519 111.722 129.448 111.722C129.234 111.722 129.091 111.579 129.091 111.365C129.163 111.151 129.306 111.008 129.448 111.008Z" fill="white"/>
<path d="M146.37 106.224C147.655 106.224 148.155 105.653 148.155 104.439C148.155 104.297 148.226 104.225 148.369 104.225C148.512 104.225 148.583 104.297 148.583 104.439C148.583 105.725 149.155 106.224 150.368 106.224C150.511 106.224 150.583 106.296 150.583 106.439C150.583 106.581 150.511 106.653 150.368 106.653C149.083 106.653 148.583 107.224 148.583 108.438C148.583 108.581 148.512 108.652 148.369 108.652C148.226 108.652 148.155 108.581 148.155 108.438C148.155 107.153 147.584 106.653 146.37 106.653C146.227 106.653 146.156 106.581 146.156 106.439C146.156 106.296 146.227 106.224 146.37 106.224Z" fill="white"/>
<path d="M130.376 97.0138C131.662 97.0138 132.161 96.4426 132.161 95.2288C132.161 95.086 132.233 95.0146 132.376 95.0146C132.518 95.0146 132.59 95.086 132.59 95.2288C132.59 96.514 133.161 97.0138 134.375 97.0138C134.518 97.0138 134.589 97.0852 134.589 97.228C134.589 97.3708 134.518 97.4422 134.375 97.4422C133.09 97.4422 132.59 98.0134 132.59 99.2272C132.59 99.37 132.518 99.4414 132.376 99.4414C132.233 99.4414 132.161 99.37 132.161 99.2272C132.161 97.942 131.59 97.4422 130.376 97.4422C130.234 97.4422 130.162 97.3708 130.162 97.228C130.162 97.1566 130.234 97.0138 130.376 97.0138Z" fill="white"/>
</g>
</svg>
