<svg width="44" height="58" viewBox="0 0 44 58" fill="none" xmlns="http://www.w3.org/2000/svg">
<g clip-path="url(#clip0_130_269)">
<path d="M34.2971 40.7348C36.2747 42.9225 36.6255 45.5921 36.4874 48.4567C36.845 48.4926 37.1301 48.5419 37.4175 48.5441C38.3972 48.5553 39.3793 48.5172 40.3591 48.5621C42.1128 48.6428 43.5066 49.9899 43.5768 51.7203C43.6379 53.2132 43.613 54.7082 43.5881 56.2011C43.5723 57.1537 43.1695 57.5123 42.1874 57.5549C41.925 57.5661 41.6602 57.5572 41.3955 57.5572C28.4998 57.5572 15.6041 57.5572 2.70837 57.5572C2.40741 57.5572 2.1042 57.5729 1.80325 57.5504C1.01805 57.4899 0.592648 57.1313 0.576808 56.3737C0.542866 54.7688 0.502136 53.1571 0.597173 51.5567C0.694474 49.8935 2.13135 48.6181 3.85108 48.5598C5.13182 48.5172 6.41483 48.5486 7.69784 48.5464C8.10967 48.5464 8.5215 48.5464 9.01026 48.5464V44.4601C8.06668 44.4601 7.17287 44.5005 6.28359 44.4512C4.14977 44.3324 2.7061 42.788 2.83508 40.8132C2.93012 39.372 3.99364 37.98 5.43278 37.8141C7.03258 37.6303 8.66406 37.6752 10.282 37.7043C10.9495 37.7155 11.3364 38.2266 11.3409 38.8071C11.3455 39.4258 10.9291 39.901 10.1869 39.9458C9.17319 40.0063 8.15266 39.9704 7.1344 39.9839C6.75878 39.9884 6.37636 39.9794 6.00753 40.0399C5.44409 40.1318 5.15445 40.5308 5.15898 41.0665C5.1635 41.6022 5.46446 41.9855 6.03016 42.0774C6.32658 42.1245 6.6298 42.1268 6.93075 42.1268C12.5108 42.129 18.0909 42.129 23.6732 42.1268C23.9742 42.1268 24.2796 42.1268 24.5738 42.0752C25.1372 41.9766 25.4314 41.5866 25.4291 41.0508C25.4291 40.5151 25.1305 40.1251 24.5648 40.0354C24.2321 39.9817 23.8882 39.9861 23.551 39.9839C22.6074 39.9772 21.6661 39.9996 20.7225 39.9727C19.7472 39.9435 19.2313 39.5087 19.2449 38.7937C19.2585 38.0854 19.7721 37.6774 20.7655 37.655C22.1594 37.6236 23.5578 37.6864 24.9494 37.6034C29.2691 37.3457 32.6022 33.4612 32.2108 29.1956C32.1972 29.0499 32.1474 28.9087 32.1067 28.7271C31.6269 28.6285 31.1563 28.5321 30.7037 28.4402C29.1718 30.3679 28.8256 30.5652 26.6918 30.6862C26.3614 31.2398 26.0084 31.8473 25.6418 32.4458C24.7865 33.8377 23.6053 34.1852 22.1956 33.3984C19.9962 32.1723 17.8058 30.9283 15.6357 29.6529C14.3346 28.8885 14.0427 27.7185 14.7374 26.3938C14.8596 26.1629 14.975 25.923 15.1311 25.7146C15.6787 24.9794 15.8756 24.298 15.3438 23.3924C14.8257 22.5093 14.9954 21.4939 15.5113 20.6017C17.6089 16.975 19.7065 13.3483 21.8449 9.74622C22.4558 8.71513 23.4401 8.18838 24.6711 8.17269C24.8951 8.17045 25.1169 8.15476 25.3545 8.14355C25.6509 7.64146 25.9202 7.15057 26.2256 6.6821C26.5243 6.2226 26.6148 5.79447 26.4994 5.21617C26.3976 4.71408 26.5175 4.09318 26.7416 3.61799C27.1851 2.67432 27.7462 1.78221 28.3006 0.892337C28.8188 0.0585036 29.3347 -0.0849516 30.1946 0.39921C33.6612 2.36275 37.121 4.33975 40.5673 6.33467C41.4203 6.83004 41.538 7.34782 41.0696 8.20856C40.66 8.96394 40.1871 9.6857 39.7776 10.4433C39.3499 11.2368 38.7978 11.8398 37.8632 12.046C37.646 12.0931 37.4129 12.297 37.2862 12.492C36.9015 13.0883 36.5644 13.7137 36.1888 14.3659C37.2251 15.805 37.2206 17.2776 36.225 18.7794C36.4512 19.0596 36.6594 19.3129 36.8585 19.5729C37.7863 20.7833 38.2094 22.1327 38.0443 23.6614C38.0103 23.9819 38.0194 24.3361 38.1212 24.6364C40.1826 30.6728 38.9222 35.9447 34.4396 40.4882C34.4147 40.5129 34.4011 40.5532 34.3016 40.7303L34.2971 40.7348ZM41.2846 55.2439C41.2846 54.1053 41.314 53.0652 41.2755 52.0297C41.2461 51.2653 40.8433 50.9067 40.0604 50.8417C39.7979 50.8215 39.5332 50.8349 39.2684 50.8349C27.8096 50.8349 16.3508 50.8349 4.89197 50.8349C4.55255 50.8349 4.2086 50.8148 3.87597 50.8596C3.3329 50.9313 2.93012 51.2675 2.90523 51.7988C2.85092 52.9375 2.88939 54.0784 2.88939 55.2439H41.2846ZM34.1228 17.6094C34.8786 16.464 34.8107 16.0582 33.7155 15.4239C31.0499 13.884 28.373 12.3576 25.6962 10.8356C24.5964 10.2124 24.1574 10.3357 23.508 11.4453C21.6005 14.7044 19.6997 17.9658 17.808 21.2338C17.1496 22.3703 17.2514 22.7581 18.3783 23.4081C21.0461 24.9457 23.7207 26.4722 26.4021 27.9897C27.5471 28.6375 28.011 28.447 28.4952 27.1783C26.642 25.2035 26.0899 22.9194 27.3638 20.4986C28.7849 17.7976 31.2106 17.0042 34.1251 17.6116L34.1228 17.6094ZM27.5268 39.5334C27.6376 40.2551 27.7395 40.9074 27.8413 41.5619C33.9554 40.096 38.0646 33.1182 36.3675 27.1738C36.0439 27.3845 35.743 27.5862 35.4352 27.7812C35.1252 27.9785 34.8107 28.1668 34.5143 28.3506C34.8628 33.7324 32.5321 37.4196 27.5245 39.5334H27.5268ZM29.0609 23.0763C29.0745 24.9457 30.5702 26.396 32.4529 26.3669C34.2744 26.3377 35.7204 24.8852 35.7317 23.0674C35.7452 21.2182 34.236 19.7007 32.3873 19.7029C30.5318 19.7051 29.0474 21.2092 29.0609 23.0763ZM19.1657 48.5016V44.5431H11.4903V48.5016H19.1657ZM29.6108 48.5016C29.6108 47.9053 29.6176 47.4234 29.6108 46.9392C29.5859 45.1729 28.9206 44.4915 27.1647 44.4736C25.6215 44.4579 24.076 44.4646 22.5328 44.4736C22.2476 44.4736 21.9625 44.5408 21.6978 44.5745V48.4993H29.6108V48.5016ZM38.5828 7.8544C35.6457 6.17553 32.7697 4.53027 29.828 2.84692C29.4524 3.50367 29.1266 4.07749 28.7464 4.74321C31.6903 6.42657 34.5618 8.07182 37.4899 9.74622C37.8881 9.05808 38.2185 8.48874 38.5828 7.8544ZM16.6925 27.6221C19.0141 28.9468 21.2384 30.2177 23.5058 31.5111C23.9108 30.8095 24.2366 30.2424 24.5919 29.6215C22.2974 28.308 20.0957 27.0483 17.799 25.7325C17.4392 26.3444 17.1066 26.9138 16.6902 27.6198L16.6925 27.6221ZM35.3447 11.1808C33.048 9.8695 30.8191 8.59633 28.5428 7.29403C28.1468 7.97992 27.8164 8.5515 27.4498 9.1836C29.7466 10.4949 31.9505 11.7523 34.236 13.0569C34.6252 12.4001 34.9578 11.8353 35.3447 11.1808ZM31.989 48.4612H34.0866C34.245 46.0897 34.1839 43.8751 32.3556 42.1088C31.688 42.4988 31.0952 42.844 30.4277 43.2341C32.118 44.6865 31.9754 46.5604 31.989 48.4612Z" fill="#ED34A3"/>
<path d="M16.4322 38.7715C16.4593 39.3901 15.9683 39.9191 15.3415 39.946C14.7125 39.9729 14.1784 39.491 14.149 38.8701C14.1219 38.2514 14.6129 37.7225 15.2397 37.6956C15.8665 37.6687 16.4028 38.1528 16.4322 38.7715Z" fill="#ED34A3"/>
</g>
<defs>
<clipPath id="clip0_130_269">
<rect width="43.0769" height="57.4359" fill="white" transform="translate(0.53833 0.128204)"/>
</clipPath>
</defs>
</svg>
