<svg width="38" height="38" viewBox="0 0 38 38" fill="none" xmlns="http://www.w3.org/2000/svg">
<path d="M18.618 14.524C18.186 14.524 17.778 14.578 17.394 14.686C17.01 14.794 16.584 14.968 16.116 15.208L15.36 13.174C15.828 12.874 16.38 12.646 17.016 12.49C17.652 12.322 18.276 12.238 18.888 12.238C19.656 12.238 20.286 12.34 20.778 12.544C21.282 12.748 21.678 13.006 21.966 13.318C22.254 13.63 22.452 13.972 22.56 14.344C22.68 14.716 22.74 15.07 22.74 15.406C22.74 15.742 22.686 16.054 22.578 16.342C22.482 16.618 22.356 16.876 22.2 17.116C22.044 17.356 21.864 17.584 21.66 17.8C21.456 18.016 21.258 18.22 21.066 18.412C20.922 18.556 20.772 18.712 20.616 18.88C20.46 19.036 20.316 19.204 20.184 19.384C20.064 19.564 19.962 19.756 19.878 19.96C19.794 20.152 19.752 20.35 19.752 20.554C19.752 20.602 19.752 20.674 19.752 20.77C19.752 20.866 19.758 20.95 19.77 21.022H17.394C17.37 20.902 17.352 20.77 17.34 20.626C17.34 20.47 17.34 20.338 17.34 20.23C17.34 19.894 17.382 19.594 17.466 19.33C17.55 19.054 17.658 18.802 17.79 18.574C17.934 18.334 18.096 18.112 18.276 17.908C18.456 17.704 18.642 17.506 18.834 17.314C19.11 17.038 19.362 16.768 19.59 16.504C19.818 16.228 19.932 15.916 19.932 15.568C19.932 15.28 19.818 15.034 19.59 14.83C19.374 14.626 19.05 14.524 18.618 14.524ZM20.292 23.578C20.292 24.106 20.118 24.514 19.77 24.802C19.434 25.09 19.05 25.234 18.618 25.234C18.186 25.234 17.796 25.09 17.448 24.802C17.112 24.514 16.944 24.106 16.944 23.578C16.944 23.05 17.112 22.642 17.448 22.354C17.796 22.066 18.186 21.922 18.618 21.922C19.05 21.922 19.434 22.066 19.77 22.354C20.118 22.642 20.292 23.05 20.292 23.578Z" fill="#ED34A3"/>
<circle cx="18.9891" cy="18.9891" r="18.4891" stroke="#ED34A3"/>
</svg>
