<svg width="43" height="29" viewBox="0 0 43 29" fill="none" xmlns="http://www.w3.org/2000/svg">
<path d="M20.5933 10.2966C20.5933 4.62178 15.9715 0 10.2966 0C4.62178 0 0 4.62178 0 10.2966C0 15.9715 4.62178 20.5933 10.2966 20.5933C11.5252 20.5933 12.7538 20.3592 13.8653 19.9497C13.6313 22.5239 12.8708 25.1565 11.5837 27.6137C11.4667 27.7892 11.4667 28.0232 11.5252 28.1987C11.5837 28.3157 11.7007 28.4327 11.8177 28.4327C11.9932 28.4912 12.1687 28.4327 12.4028 28.2572C14.8599 26.1511 16.966 23.4014 18.3701 20.3592C19.6572 17.5511 20.4177 14.5674 20.5347 11.4082C20.5933 11.0572 20.5933 10.6476 20.5933 10.2966Z" fill="white"/>
<path d="M42.9995 10.2966C42.9995 4.62178 38.3777 0 32.7029 0C27.028 0 22.4062 4.62178 22.4062 10.2966C22.4062 15.9715 27.028 20.5933 32.7029 20.5933C33.9314 20.5933 35.16 20.3592 36.2716 19.9497C36.0376 22.5239 35.277 25.1565 33.99 27.6137C33.8729 27.7892 33.8729 28.0232 33.9314 28.1987C33.99 28.3157 34.107 28.4327 34.224 28.4327C34.3995 28.4912 34.575 28.4327 34.809 28.2572C37.2662 26.1511 39.3723 23.4014 40.7764 20.3592C42.0634 17.5511 42.824 14.5674 42.941 11.4082C42.9995 11.0572 42.9995 10.6476 42.9995 10.2966Z" fill="white"/>
</svg>
